<!-- Generated by IcoMoon.io -->
<svg version="1.1" xmlns="http://www.w3.org/2000/svg" width="576" height="576" viewBox="0 0 576 576">
<title></title>
<g id="icomoon-ignore">
</g>
<path d="M260.469 286.074l-254.952 254.952c-7.083 7.083-7.083 18.558 0 25.641 3.537 3.546 8.181 5.31 12.816 5.31 4.644 0 9.279-1.764 12.816-5.31l256.869-256.869 256.869 256.869c3.546 3.546 8.181 5.31 12.816 5.31s9.279-1.764 12.816-5.31c7.083-7.083 7.083-18.558 0-25.641l-254.943-254.952 255.114-255.132c7.083-7.083 7.083-18.558 0-25.641-7.083-7.074-18.558-7.074-25.632 0l-257.031 257.049-257.058-257.040c-7.083-7.074-18.549-7.074-25.632 0-7.083 7.083-7.083 18.558 0 25.641l255.132 255.123z"></path>
</svg>
