<!-- Generated by IcoMoon.io -->
<svg version="1.1" xmlns="http://www.w3.org/2000/svg" width="1024" height="1024" viewBox="0 0 1024 1024">
<title></title>
<g id="icomoon-ignore">
</g>
<path d="M672 416v-96l-192-224h-351.912c-35.395 0-64.088 28.747-64.088 64.235v735.531c0 35.476 28.51 64.235 63.918 64.235h480.165c35.301 0 63.918-28.743 63.918-63.705v-64.295h255.781c53.14 0 96.219-42.952 96.219-95.961v-224.078c0-52.998-42.752-95.961-96.219-95.961h-255.781zM640 832v64.211c0 17.55-14.326 31.789-31.999 31.789h-480.003c-17.448 0-31.999-14.262-31.999-31.855v-736.291c0-17.286 14.264-31.855 31.858-31.855h320.142v159.811c0 35.82 28.624 64.189 63.933 64.189h128.067v64h-255.781c-53.14 0-96.219 42.952-96.219 95.961v224.078c0 52.998 42.752 95.961 96.219 95.961h255.781zM480 144l150.398 176h-118.503c-17.475 0-31.896-14.453-31.896-32.281v-143.719zM383.826 448h544.348c34.951 0 63.826 28.539 63.826 63.745v224.511c0 34.939-28.576 63.745-63.826 63.745h-544.348c-34.951 0-63.826-28.539-63.826-63.745v-224.511c0-34.939 28.576-63.745 63.826-63.745zM800 608h96v32h-96v96h-32v-224h160v32h-128v64zM384 576v-64h95.844c35.551 0 64.156 28.654 64.156 64 0 35.593-28.724 64-64.156 64h-63.844v96h-32v-160zM416 544v64h64.033c17.655 0 31.967-14.204 31.967-32 0-17.673-14.165-32-31.967-32h-64.033zM576 512h95.844c35.551 0 64.156 28.739 64.156 64.189v95.621c0 35.82-28.724 64.189-64.156 64.189h-95.844v-224zM608 544v160h64.033c17.655 0 31.967-14.199 31.967-31.994v-96.012c0-17.67-14.165-31.994-31.967-31.994h-64.033z"></path>
</svg>
