<!-- Generated by IcoMoon.io -->
<svg version="1.1" xmlns="http://www.w3.org/2000/svg" width="576" height="576" viewBox="0 0 576 576">
<title></title>
<g id="icomoon-ignore">
</g>
<path d="M568.125 289.125c0 40.275 0.113 80.55 0 120.938-0.225 58.5-27.45 101.813-76.050 132.413-28.463 17.775-60.075 25.65-93.6 25.65-73.35 0-146.587 0.337-219.937-0.113-50.963-0.337-94.838-18.337-129.6-56.137-21.488-23.4-34.313-50.963-38.025-82.8-0.787-6.75-0.9-13.387-0.9-20.137 0-80.213-0.113-160.425 0-240.638 0.338-58.612 27.563-101.925 76.163-132.525 28.688-17.888 60.413-25.65 94.163-25.65 73.125 0 146.25-0.338 219.375 0.112 51.188 0.338 95.175 18.45 129.937 56.475 21.263 23.288 33.975 50.85 37.575 82.35 1.462 12.375 0.787 24.75 0.9 37.013 0.113 34.425 0 68.737 0 103.050zM51.75 289.125c0 41.287-0.113 82.463 0 123.75 0.113 28.35 10.462 52.762 29.813 73.012 25.987 27.113 58.388 40.275 95.625 40.5 73.912 0.45 147.713 0.113 221.625 0.113 23.85 0 46.575-5.175 67.275-17.1 38.7-22.163 60.525-54.788 60.525-100.463 0-81.225 0-162.338 0-243.563 0-28.125-10.238-52.425-29.475-72.563-25.762-27.225-58.275-40.613-95.4-40.837-74.7-0.563-149.287-0.225-223.987-0.225-23.287 0-45.338 5.512-65.587 16.987-38.587 22.275-60.525 54.9-60.413 100.575 0 39.938 0 79.875 0 119.813z"></path>
<path d="M289.463 408.375c-72.675 0-130.95-58.050-130.838-130.5 0.112-70.537 59.175-128.362 131.287-128.25 72.45 0 130.95 58.162 130.838 129.938-0.113 71.1-58.95 128.813-131.287 128.813zM289.463 366.75c49.387 0 89.662-39.262 89.662-87.525 0-48.487-39.938-87.975-89.213-87.975-49.387 0-89.662 39.263-89.662 87.525 0 48.488 39.938 87.975 89.213 87.975z"></path>
<path d="M408.375 139.050c0-15.975 12.262-28.8 27.563-28.8s27.563 12.938 27.563 28.8c0 15.638-12.262 28.463-27.338 28.575-15.3 0.112-27.787-12.6-27.787-28.575z"></path>
</svg>
