<!-- Generated by IcoMoon.io -->
<svg version="1.1" xmlns="http://www.w3.org/2000/svg" width="576" height="576" viewBox="0 0 576 576">
<title></title>
<g id="icomoon-ignore">
</g>
<path d="M528 0h-288c-26.472 0-48 21.527-48 48v84c0 6.633 5.367 12 12 12s12-5.367 12-12v-84c0-13.23 10.77-24 24-24h288c13.23 0 24 10.77 24 24v480c0 13.23-10.77 24-24 24h-288c-13.23 0-24-10.77-24-24v-84c0-6.633-5.367-12-12-12s-12 5.367-12 12v84c0 26.472 21.527 48 48 48h288c26.473-0.001 48-21.528 48-48.002v-479.999c0-26.474-21.527-48-48-48z"></path>
<path d="M267.891 411.153c-4.887 4.476-5.214 12.070-0.738 16.957 2.367 2.578 5.601 3.89 8.848 3.89 2.895 0 5.8-1.043 8.109-3.152l144-132c2.484-2.274 3.89-5.484 3.89-8.848s-1.406-6.575-3.89-8.848l-144-132c-4.911-4.476-12.468-4.137-16.957 0.738-4.476 4.887-4.149 12.481 0.738 16.957l121.264 111.152h-377.154c-6.633 0-12 5.367-12 12s5.367 12 12 12h377.155l-121.265 111.152z"></path>
</svg>
