<!-- Generated by IcoMoon.io -->
<svg version="1.1" xmlns="http://www.w3.org/2000/svg" width="576" height="576" viewBox="0 0 576 576">
<title></title>
<g id="icomoon-ignore">
</g>
<path d="M570.955 546.625l-139.977-139.977c37.549-43.168 60.282-99.491 60.282-161.050 0-135.507-110.219-245.598-245.598-245.598-135.507 0-245.598 110.219-245.598 245.598s110.219 245.598 245.598 245.598c61.559 0 117.882-22.733 161.050-60.282l139.977 139.977c3.32 3.32 7.791 5.109 12.133 5.109s8.813-1.66 12.133-5.109c6.641-6.641 6.641-17.625 0-24.266zM34.419 245.598c0-116.477 94.766-211.115 211.115-211.115 116.477 0 211.115 94.766 211.115 211.115s-94.638 211.242-211.115 211.242c-116.349 0-211.115-94.765-211.115-211.242z"></path>
</svg>
