<!-- Generated by IcoMoon.io -->
<svg version="1.1" xmlns="http://www.w3.org/2000/svg" width="576" height="576" viewBox="0 0 576 576">
<title></title>
<g id="icomoon-ignore">
</g>
<path d="M455.222 356.812c-11.792-12.278-26.016-18.843-41.090-18.843-14.953 0-29.298 6.443-41.577 18.722l-38.416 38.294c-3.161-1.702-6.321-3.282-9.361-4.863-4.376-2.188-8.51-4.255-12.035-6.443-35.984-22.855-68.686-52.639-100.051-91.177-15.196-19.208-25.408-35.377-32.824-51.788 9.969-9.118 19.208-18.6 28.204-27.718 3.404-3.404 6.808-6.929 10.212-10.333 25.53-25.53 25.53-58.596 0-84.126l-33.188-33.188c-3.769-3.769-7.659-7.659-11.306-11.549-7.294-7.538-14.953-15.317-22.855-22.612-11.792-11.671-25.894-17.871-40.726-17.871s-29.176 6.2-41.334 17.871c-0.121 0.121-0.121 0.121-0.243 0.243l-41.334 41.698c-15.561 15.561-24.436 34.526-26.381 56.53-2.918 35.498 7.538 68.565 15.561 90.204 19.694 53.125 49.114 102.361 93 155.122 53.247 63.581 117.314 113.788 190.498 149.165 27.961 13.251 65.283 28.933 106.981 31.608 2.553 0.122 5.227 0.243 7.659 0.243 28.082 0 51.667-10.090 70.145-30.149 0.121-0.243 0.365-0.365 0.486-0.608 6.321-7.659 13.616-14.588 21.274-22.004 5.227-4.984 10.577-10.212 15.804-15.682 12.035-12.522 18.357-27.11 18.357-42.063 0-15.074-6.443-29.541-18.722-41.698l-66.741-66.984zM498.743 484.823c-0.122 0-0.122 0.121 0 0-4.741 5.106-9.604 9.726-14.831 14.831-7.902 7.538-15.925 15.44-23.463 24.314-12.278 13.129-26.745 19.329-45.71 19.329-1.824 0-3.769 0-5.592-0.122-36.106-2.31-69.659-16.412-94.823-28.447-68.808-33.31-129.228-80.6-179.435-140.533-41.455-49.965-69.173-96.161-87.53-145.761-11.306-30.27-15.439-53.855-13.616-76.102 1.216-14.223 6.686-26.016 16.777-36.106l41.455-41.455c5.957-5.592 12.278-8.632 18.479-8.632 7.659 0 13.859 4.62 17.749 8.51 0.121 0.122 0.243 0.243 0.364 0.365 7.415 6.929 14.467 14.102 21.882 21.761 3.769 3.89 7.659 7.781 11.549 11.792l33.188 33.188c12.886 12.886 12.886 24.8 0 37.686-3.526 3.526-6.929 7.051-10.455 10.455-10.212 10.455-19.937 20.18-30.514 29.663-0.243 0.243-0.486 0.365-0.608 0.608-10.455 10.455-8.51 20.667-6.321 27.596 0.121 0.365 0.243 0.73 0.365 1.094 8.632 20.91 20.788 40.604 39.266 64.067l0.121 0.121c33.553 41.334 68.929 73.549 107.953 98.228 4.984 3.161 10.090 5.714 14.953 8.145 4.376 2.188 8.51 4.255 12.035 6.443 0.486 0.243 0.973 0.608 1.459 0.851 4.133 2.067 8.024 3.039 12.035 3.039 10.090 0 16.412-6.321 18.479-8.388l41.577-41.577c4.133-4.133 10.698-9.118 18.357-9.118 7.537 0 13.737 4.741 17.506 8.875 0.121 0.121 0.121 0.121 0.243 0.243l66.984 66.984c12.522 12.4 12.522 25.165 0.122 38.051z"></path>
<path d="M311.284 137.015c31.851 5.349 60.784 20.424 83.882 43.522s38.051 52.031 43.522 83.882c1.337 8.024 8.267 13.616 16.168 13.616 0.973 0 1.824-0.122 2.796-0.243 8.996-1.459 14.953-9.969 13.494-18.965-6.565-38.537-24.8-73.671-52.639-101.51s-62.972-46.074-101.51-52.639c-8.996-1.459-17.384 4.498-18.965 13.372s4.255 17.506 13.251 18.965z"></path>
<path d="M575.331 254.086c-10.82-63.459-40.726-121.204-86.678-167.157s-103.698-75.859-167.157-86.678c-8.875-1.581-17.263 4.498-18.843 13.372-1.459 8.996 4.498 17.384 13.494 18.965 56.651 9.604 108.318 36.471 149.408 77.439 41.090 41.090 67.835 92.757 77.439 149.408 1.337 8.024 8.267 13.616 16.168 13.616 0.973 0 1.824-0.121 2.796-0.243 8.875-1.337 14.953-9.847 13.372-18.722z"></path>
</svg>
