<!-- Generated by IcoMoon.io -->
<svg version="1.1" xmlns="http://www.w3.org/2000/svg" width="576" height="576" viewBox="0 0 576 576">
<title></title>
<g id="icomoon-ignore">
</g>
<path d="M547.2 57.024c-7.488-6.336-19.584-6.912-40.32-0.576 0 0 0 0 0 0-14.4 4.608-142.272 52.992-255.168 99.648-101.376 42.048-183.744 78.912-193.536 83.52-10.944 3.456-34.56 13.824-35.712 29.952-0.576 10.368 8.064 19.584 24.768 27.072 17.856 9.216 96.768 35.712 113.472 40.896 5.76 19.584 39.744 134.208 41.472 141.12 2.304 10.368 9.216 16.128 12.672 18.432 0.576 0.576 1.728 1.728 2.88 2.304 1.728 1.152 4.032 1.728 6.912 1.728 4.032 0 8.64-1.728 12.672-4.608 21.312-17.28 58.176-55.872 68.544-66.816 45.504 35.712 95.040 75.456 99.648 80.064 0 0 0.576 0.576 0.576 0.576 10.944 9.216 22.464 14.4 32.832 14.4 3.456 0 6.912-0.576 10.368-1.728 12.096-4.032 20.736-15.552 23.616-31.104 0-0.576 0.576-2.88 1.728-6.912 19.584-85.248 35.136-160.128 47.808-222.912 12.096-61.632 21.888-122.112 27.648-154.368 1.152-8.064 2.304-14.4 2.88-18.432 1.728-11.52 2.88-24.768-5.76-32.256zM172.8 335.808l274.752-182.016c0.576-0.576 1.728-1.152 2.304-1.728 0 0 0 0 0 0 0.576 0 0.576-0.576 1.152-0.576s0.576 0 1.152-0.576c-0.576 0.576-1.152 2.304-2.304 3.456l-69.696 65.088c-48.384 44.352-111.744 102.528-153.792 140.544 0 0 0 0 0 0.576 0 0-0.576 0.576-0.576 0.576s0 0.576-0.576 0.576c0 0.576 0 0.576-0.576 1.152 0 0 0 0.576 0 0.576s0 0 0 0.576c-2.88 32.256-8.064 87.552-10.368 112.32 0 0 0 0 0-0.576-2.304-6.912-34.56-116.928-41.472-139.968z"></path>
</svg>
