<!-- Generated by IcoMoon.io -->
<svg version="1.1" xmlns="http://www.w3.org/2000/svg" width="576" height="576" viewBox="0 0 576 576">
<title></title>
<g id="icomoon-ignore">
</g>
<path d="M307.2 460.8c19.2 0 19.2-27.667 19.2-38.4 0-19.2 19.2-38.4 38.4-38.4s52.128 32.928 76.8 57.6c19.2 19.2 19.2 19.2 38.4 19.2s57.6 0 57.6 0 38.4-1.459 38.4-38.4c0-12-13.152-32.352-57.6-76.8-38.4-38.4-58.099-18.566 0-96 35.386-47.155 61.133-89.875 56.717-102.202-4.224-11.77-102.643-30.509-114.317-12.998-38.4 57.6-45.447 71.712-57.6 96-19.2 38.4-21.101 57.6-38.4 57.6-17.453 0-19.2-37.267-19.2-57.6 0-63.475 9.197-108.365-19.2-115.2 0 0-38.4 0-57.6 0-30.912 0-57.6 19.2-57.6 19.2s-23.827 18.586-19.2 19.2c5.722 0.768 38.4-7.949 38.4 19.2 0 19.2 0 38.4 0 38.4s0.173 76.8-19.2 76.8c-19.2 0-57.6-76.8-96-134.4-15.072-22.598-19.2-19.2-38.4-19.2-20.582 0-38.381 0.807-57.6 0.807-19.2 0-21.657 12.23-19.2 18.394 38.4 96 65.99 156.288 138.95 232.243 66.912 69.677 111.61 73.383 149.050 74.957 9.6 0.403 0 0 19.2 0z"></path>
</svg>
