<!-- Generated by IcoMoon.io -->
<svg version="1.1" xmlns="http://www.w3.org/2000/svg" width="576" height="576" viewBox="0 0 576 576">
<title></title>
<g id="icomoon-ignore">
</g>
<path d="M437.408 407.993h-28.448l0.133-16.526c0-7.344 6.031-13.351 13.392-13.351h1.82c7.385 0 13.433 6.007 13.433 13.351l-0.328 16.526zM330.699 372.58c-7.217 0-13.121 4.856-13.121 10.789v80.369c0 5.927 5.904 10.766 13.121 10.766 7.246 0 13.156-4.839 13.156-10.766v-80.369c0-5.938-5.91-10.789-13.156-10.789zM504 327.623v152.894c0 36.674-31.801 66.683-70.675 66.683h-290.644c-38.886 0-70.681-30.009-70.681-66.683v-152.894c0-36.674 31.795-66.689 70.681-66.689h290.644c38.874 0 70.675 30.016 70.675 66.689zM162.069 497.117l-0.023-161.056 36.029 0.011v-23.863l-96.042-0.144v23.461l29.981 0.087v161.504h30.055zM270.069 360.052h-30.039v86.002c0 12.441 0.754 18.663-0.046 20.857-2.442 6.67-13.421 13.755-17.701 0.72-0.726-2.281-0.087-9.159-0.098-20.983l-0.121-86.596h-29.872l0.092 85.237c0.023 13.064-0.294 22.804 0.104 27.239 0.731 7.816 0.472 16.928 7.724 22.135 13.513 9.735 39.416-1.451 45.895-15.368l-0.057 17.758 24.123 0.029-0.006-137.031zM366.163 458.537l-0.069-71.579c-0.017-27.28-20.425-43.615-48.125-21.543l0.121-53.216-30.009 0.046-0.138 183.687 24.67-0.357 2.247-11.44c31.53 28.921 51.351 9.101 51.304-25.598zM460.167 449.049l-22.521 0.115c-0.011 0.893-0.046 1.924-0.057 3.047v12.574c0 6.728-5.559 12.2-12.309 12.2h-4.412c-6.762 0-12.32-5.472-12.32-12.2v-33.056h51.575v-19.411c0-14.187-0.363-28.368-1.538-36.478-3.692-25.655-39.71-29.728-57.894-16.594-5.708 4.101-10.069 9.591-12.603 16.963-2.563 7.378-3.831 17.458-3.831 30.263v42.681c0.017 70.951 86.199 60.923 75.911-0.103zM344.638 217.337c1.55 3.767 3.957 6.82 7.223 9.124 3.225 2.27 7.35 3.41 12.292 3.41 4.331 0 8.168-1.169 11.509-3.583 3.329-2.402 6.135-5.991 8.427-10.777l-0.57 11.785h33.483v-142.393h-26.358v110.823c0 6.002-4.942 10.915-10.984 10.915-6.007 0-10.967-4.913-10.967-10.915v-110.823h-27.51v96.042c0 12.234 0.224 20.391 0.587 24.526 0.375 4.107 1.319 8.047 2.869 11.865zM243.17 136.915c0-13.669 1.141-24.342 3.404-32.037 2.281-7.666 6.376-13.83 12.309-18.478 5.915-4.672 13.49-7.010 22.7-7.010 7.747 0 14.383 1.52 19.924 4.498 5.57 2.995 9.861 6.883 12.845 11.681 3.035 4.816 5.097 9.763 6.198 14.826 1.123 5.132 1.676 12.873 1.676 23.317v36.011c0 13.208-0.53 22.925-1.561 29.094-1.019 6.186-3.208 11.923-6.601 17.303-3.341 5.322-7.655 9.303-12.885 11.842-5.287 2.563-11.336 3.819-18.167 3.819-7.632 0-14.060-1.054-19.36-3.255-5.317-2.189-9.424-5.489-12.35-9.872-2.955-4.389-5.034-9.735-6.29-15.967-1.262-6.226-1.861-15.593-1.861-28.074l0.017-37.699zM269.395 193.479c0 8.064 6.002 14.648 13.312 14.648 7.321 0 13.294-6.584 13.294-14.648v-75.801c0-8.053-5.973-14.636-13.294-14.636-7.31 0-13.312 6.584-13.312 14.636v75.801zM176.729 231.753h31.588l0.034-109.209 37.325-93.554h-34.549l-19.843 69.488-20.126-69.679h-34.192l39.71 93.796 0.052 109.158z"></path>
</svg>
