<svg xmlns="http://www.w3.org/2000/svg" width="238.831" height="321.201" viewBox="0 0 1750 2354" shape-rendering="geometricPrecision" text-rendering="geometricPrecision" image-rendering="optimizeQuality" fill-rule="evenodd" clip-rule="evenodd"><defs><style>.fil0{fill-rule:nonzero}.fil3{fill:#d12e27}.fil3,.fil4{fill-rule:nonzero}.fil0{fill:#9dd2f3}.fil4{fill:#83d0f4}.fil1,.fil2,.fil5{fill-rule:nonzero}.fil2,.fil5{fill:#7ab6e4}.fil5{fill:#4a4643}.fil1{fill:#2c4896}</style></defs><g id="Слой_x0020_1"><g id="_2048104845024"><path class="fil0" d="M829 738H0V2h829z"/><path class="fil1" d="M829 1752H0V830h829z"/><path class="fil2" d="M922 457h828v1295H922z"/><path class="fil3" d="M1750 370h-368V0z"/><path class="fil4" d="M922 1h368v369H922z"/><path class="fil5" d="M395 2161c0 90-22 116-122 116H123c-93 0-123-28-123-119v-96c0-98 32-126 131-126h134c80 0 130 23 130 118h-81c0-36-18-51-65-51H146c-54 0-65 9-65 62v84c0 52 19 61 65 61h103c49 0 65-9 65-49h81zm134-99h48l147-126h121l-199 158 207 179H734l-156-144h-49v144h-81v-337h81zm667-59h-179v111c0 37-9 65-28 92h207v-203zm-257 94v-161h337v270h38v148h-74v-81H950v81h-74v-148h23c29-28 40-60 40-109zm561 113h107c51 0 63-11 63-57v-90c0-49-17-60-65-60h-104c-51 0-65 13-65 61v90c0 44 14 56 64 56zm128 67h-148c-90 0-124-33-124-115v-106c0-92 32-120 124-120h148c84 0 122 25 122 120v106c0 84-27 115-122 115z"/></g></g></svg>