<svg xmlns="http://www.w3.org/2000/svg" width="690.867" height="242.906" viewBox="0 0 25703 9037" shape-rendering="geometricPrecision" text-rendering="geometricPrecision" image-rendering="optimizeQuality" fill-rule="evenodd" clip-rule="evenodd"><defs><style>.fil0{fill-rule:nonzero}.fil3{fill:#d12e27}.fil3,.fil4{fill-rule:nonzero}.fil0{fill:#9dd2f3}.fil4{fill:#83d0f4}.fil1,.fil2,.fil5{fill-rule:nonzero}.fil2,.fil5{fill:#7ab6e4}.fil5{fill:#4a4643}.fil1{fill:#2c4896}</style></defs><g id="Слой_x0020_1"><g id="_2048242212032"><path class="fil0" d="M4275 3809H0V8h4275z"/><path class="fil1" d="M4275 9037H0V4284h4275z"/><path class="fil2" d="M4756 2357h4275v6680H4756z"/><path class="fil3" d="M9031 1908H7129V0z"/><path class="fil4" d="M4756 7h1898v1901H4756z"/><path class="fil5" d="M13957 4520c-4 780-194 1012-1058 1012h-1302c-810 0-1067-249-1067-1033v-830c0-856 274-1096 1134-1096h1163c692 0 1126 198 1126 1020h-700c0-308-156-439-560-439h-898c-468 0-565 80-565 540v725c0 447 164 531 565 531h898c417 0 560-76 560-430h704zm1159-856h413l1277-1091h1050l-1724 1370 1791 1555h-1028l-1353-1252h-426v1252h-700V2573h700zm5778-510h-1551v961c0 321-71 561-240 801h1791V3154zm-2225 818V2573h2925v2343h324v1282h-636v-700h-2521v700h-640V4916h198c257-248 350-527 350-944zm4859 978h927c447 0 548-97 548-493v-780c0-426-143-523-560-523h-902c-439 0-561 110-561 527v780c0 384 122 489 548 489zm1117 582h-1285c-784 0-1079-291-1079-999v-919c0-801 282-1041 1079-1041h1285c725 0 1058 219 1058 1041v919c0 729-240 999-1058 999z"/></g></g></svg>