<?xml version="1.0" encoding="UTF-8"?><!DOCTYPE svg PUBLIC "-//W3C//DTD SVG 1.1//EN" "http://www.w3.org/Graphics/SVG/1.1/DTD/svg11.dtd"><svg xmlns="http://www.w3.org/2000/svg"><symbol id="arrow" viewBox="0 0 492.004 492.004"><path d="M484.14 226.886L306.46 49.202c-5.072-5.072-11.832-7.856-19.04-7.856-7.216 0-13.972 2.788-19.044 7.856l-16.132 16.136c-5.068 5.064-7.86 11.828-7.86 19.04 0 7.208 2.792 14.2 7.86 19.264L355.9 207.526H26.58C11.732 207.526 0 219.15 0 234.002v22.812c0 14.852 11.732 27.648 26.58 27.648h330.496L252.248 388.926c-5.068 5.072-7.86 11.652-7.86 18.864 0 7.204 2.792 13.88 7.86 18.948l16.132 16.084c5.072 5.072 11.828 7.836 19.044 7.836 7.208 0 13.968-2.8 19.04-7.872l177.68-177.68c5.084-5.088 7.88-11.88 7.86-19.1.016-7.244-2.776-14.04-7.864-19.12z"/></symbol><symbol id="cancel" viewBox="0 0 576 576"><title/><path d="M260.469 286.074L5.517 541.026c-7.083 7.083-7.083 18.558 0 25.641a18.043 18.043 0 0 0 12.816 5.31c4.644 0 9.279-1.764 12.816-5.31l256.869-256.869 256.869 256.869c3.546 3.546 8.181 5.31 12.816 5.31s9.279-1.764 12.816-5.31c7.083-7.083 7.083-18.558 0-25.641L315.576 286.074 570.69 30.942c7.083-7.083 7.083-18.558 0-25.641-7.083-7.074-18.558-7.074-25.632 0L288.027 262.35 30.969 5.31c-7.083-7.074-18.549-7.074-25.632 0-7.083 7.083-7.083 18.558 0 25.641l255.132 255.123z"/></symbol><symbol id="clip" viewBox="0 0 576 576"><title/><g stroke="#449FDB"><path opacity=".3" d="M16 0v576"/><path d="M32 0v576"/><path opacity=".3" d="M48 0v576"/><path d="M64 0v576"/><path opacity=".3" d="M80 0v576"/><path d="M96 0v576"/><path opacity=".3" d="M112 0v576"/><path d="M128 0v576"/><path opacity=".3" d="M144 0v576"/><path d="M160 0v576"/><path opacity=".3" d="M176 0v576"/><path d="M192 0v576"/><path opacity=".3" d="M208 0v576"/><path d="M224 0v576"/><path opacity=".3" d="M240 0v576"/><path d="M256 0v576"/><path opacity=".3" d="M272 0v576"/><path d="M288 0v576"/><path opacity=".3" d="M304 0v576"/><path d="M320 0v576"/><path opacity=".3" d="M336 0v576"/><path d="M352 0v576"/><path opacity=".3" d="M368 0v576"/><path d="M384 0v576"/><path opacity=".3" d="M400 0v576"/><path d="M416 0v576"/><path opacity=".3" d="M432 0v576"/><path d="M448 0v576"/><path opacity=".3" d="M464 0v576"/><path d="M480 0v576"/><path opacity=".3" d="M496 0v576"/><path d="M512 0v576"/><path opacity=".3" d="M528 0v576"/><path d="M544 0v576"/><path opacity=".3" d="M560 0v576M0 16h576"/><path d="M0 32h576"/><path opacity=".3" d="M0 48h576"/><path d="M0 64h576"/><path opacity=".3" d="M0 80h576"/><path d="M0 96h576"/><path opacity=".3" d="M0 112h576"/><path d="M0 128h576"/><path opacity=".3" d="M0 144h576"/><path d="M0 160h576"/><path opacity=".3" d="M0 176h576"/><path d="M0 192h576"/><path opacity=".3" d="M0 208h576"/><path d="M0 224h576"/><path opacity=".3" d="M0 240h576"/><path d="M0 256h576"/><path opacity=".3" d="M0 272h576"/><path d="M0 288h576"/><path opacity=".3" d="M0 304h576"/><path d="M0 320h576"/><path opacity=".3" d="M0 336h576"/><path d="M0 352h576"/><path opacity=".3" d="M0 368h576"/><path d="M0 384h576"/><path opacity=".3" d="M0 400h576"/><path d="M0 416h576"/><path opacity=".3" d="M0 432h576"/><path d="M0 448h576"/><path opacity=".3" d="M0 464h576"/><path d="M0 480h576"/><path opacity=".3" d="M0 496h576"/><path d="M0 512h576"/><path opacity=".3" d="M0 528h576"/><path d="M0 544h576"/><path opacity=".3" d="M0 560h576"/></g><path d="M531.408 238.794c-9.372-9.372-24.57-9.372-33.936 0l-220.62 220.62c-46.866 46.866-122.838 46.866-169.704 0s-46.866-122.838 0-169.704c.012-.012.03-.036.042-.048L327.762 69.096c28.128-28.128 73.71-28.128 101.826 0 28.122 28.116 28.122 73.698 0 101.82l-220.62 220.62c-9.372 9.372-24.57 9.372-33.942.006-9.372-9.372-9.372-24.576 0-33.948l203.646-203.646c9.372-9.372 9.372-24.57.006-33.942-9.372-9.372-24.576-9.372-33.948 0L141.09 323.658c-28.116 28.116-28.122 73.704 0 101.826 28.116 28.116 73.71 28.116 101.826 0l220.614-220.62c46.866-46.866 46.872-122.844.006-169.704-46.872-46.872-122.844-46.872-169.704-.006l-.072.072L73.284 255.684a.554.554 0 0 1-.084.084c-65.61 65.616-65.61 171.99 0 237.594 65.61 65.61 171.978 65.61 237.588 0l220.62-220.62c9.378-9.372 9.378-24.57 0-33.948z"/></symbol><symbol id="fb" viewBox="0 0 576 576"><title/><path d="M410.768 220.868h-77.673v-50.942c0-19.131 12.68-23.591 21.61-23.591h54.813V62.231l-75.489-.295c-83.8 0-102.87 62.728-102.87 102.87v56.063h-48.463v86.665h48.463v245.231h101.935V307.534h68.783l8.89-86.665z"/></symbol><symbol id="ig" viewBox="0 0 576 576"><title/><path d="M568.125 289.125c0 40.275.113 80.55 0 120.938-.225 58.5-27.45 101.813-76.05 132.413-28.463 17.775-60.075 25.65-93.6 25.65-73.35 0-146.587.337-219.937-.113-50.963-.337-94.838-18.337-129.6-56.137-21.488-23.4-34.313-50.963-38.025-82.8-.787-6.75-.9-13.387-.9-20.137 0-80.213-.113-160.425 0-240.638.338-58.612 27.563-101.925 76.163-132.525 28.688-17.888 60.413-25.65 94.163-25.65 73.125 0 146.25-.338 219.375.112 51.188.338 95.175 18.45 129.937 56.475 21.263 23.288 33.975 50.85 37.575 82.35 1.462 12.375.787 24.75.9 37.013.113 34.425 0 68.737 0 103.05zm-516.375 0c0 41.287-.113 82.463 0 123.75.113 28.35 10.462 52.762 29.813 73.012 25.987 27.113 58.388 40.275 95.625 40.5 73.912.45 147.713.113 221.625.113 23.85 0 46.575-5.175 67.275-17.1 38.7-22.163 60.525-54.788 60.525-100.463V165.374c0-28.125-10.238-52.425-29.475-72.563-25.762-27.225-58.275-40.613-95.4-40.837-74.7-.563-149.287-.225-223.987-.225-23.287 0-45.338 5.512-65.587 16.987-38.587 22.275-60.525 54.9-60.413 100.575v119.813z"/><path d="M289.463 408.375c-72.675 0-130.95-58.05-130.838-130.5.112-70.537 59.175-128.362 131.287-128.25 72.45 0 130.95 58.162 130.838 129.938-.113 71.1-58.95 128.813-131.287 128.813zm0-41.625c49.387 0 89.662-39.262 89.662-87.525 0-48.487-39.938-87.975-89.213-87.975-49.387 0-89.662 39.263-89.662 87.525 0 48.488 39.938 87.975 89.213 87.975zM408.375 139.05c0-15.975 12.262-28.8 27.563-28.8s27.563 12.938 27.563 28.8c0 15.638-12.262 28.463-27.338 28.575-15.3.112-27.787-12.6-27.787-28.575z"/></symbol><symbol id="login" viewBox="0 0 576 576"><title/><path d="M528 0H240c-26.472 0-48 21.527-48 48v84c0 6.633 5.367 12 12 12s12-5.367 12-12V48c0-13.23 10.77-24 24-24h288c13.23 0 24 10.77 24 24v480c0 13.23-10.77 24-24 24H240c-13.23 0-24-10.77-24-24v-84c0-6.633-5.367-12-12-12s-12 5.367-12 12v84c0 26.472 21.527 48 48 48h288c26.473-.001 48-21.528 48-48.002V47.999c0-26.474-21.527-48-48-48z"/><path d="M267.891 411.153c-4.887 4.476-5.214 12.07-.738 16.957a11.979 11.979 0 0 0 8.848 3.89c2.895 0 5.8-1.043 8.109-3.152l144-132c2.484-2.274 3.89-5.484 3.89-8.848s-1.406-6.575-3.89-8.848l-144-132a12.014 12.014 0 0 0-16.957.738c-4.476 4.887-4.149 12.481.738 16.957l121.264 111.152H12.001c-6.633 0-12 5.367-12 12s5.367 12 12 12h377.155L267.891 411.151z"/></symbol><symbol id="magnifyings" viewBox="0 0 576 576"><title/><path d="M570.955 546.625L430.978 406.648c37.549-43.168 60.282-99.491 60.282-161.05C491.26 110.091 381.041 0 245.662 0 110.155 0 .064 110.219.064 245.598s110.219 245.598 245.598 245.598c61.559 0 117.882-22.733 161.05-60.282l139.977 139.977c3.32 3.32 7.791 5.109 12.133 5.109s8.813-1.66 12.133-5.109c6.641-6.641 6.641-17.625 0-24.266zM34.419 245.598c0-116.477 94.766-211.115 211.115-211.115 116.477 0 211.115 94.766 211.115 211.115S362.011 456.84 245.534 456.84c-116.349 0-211.115-94.765-211.115-211.242z"/></symbol><symbol id="mail" viewBox="0 0 576 576"><title/><g stroke="#449FDB"><path opacity=".3" d="M16 0v576"/><path d="M32 0v576"/><path opacity=".3" d="M48 0v576"/><path d="M64 0v576"/><path opacity=".3" d="M80 0v576"/><path d="M96 0v576"/><path opacity=".3" d="M112 0v576"/><path d="M128 0v576"/><path opacity=".3" d="M144 0v576"/><path d="M160 0v576"/><path opacity=".3" d="M176 0v576"/><path d="M192 0v576"/><path opacity=".3" d="M208 0v576"/><path d="M224 0v576"/><path opacity=".3" d="M240 0v576"/><path d="M256 0v576"/><path opacity=".3" d="M272 0v576"/><path d="M288 0v576"/><path opacity=".3" d="M304 0v576"/><path d="M320 0v576"/><path opacity=".3" d="M336 0v576"/><path d="M352 0v576"/><path opacity=".3" d="M368 0v576"/><path d="M384 0v576"/><path opacity=".3" d="M400 0v576"/><path d="M416 0v576"/><path opacity=".3" d="M432 0v576"/><path d="M448 0v576"/><path opacity=".3" d="M464 0v576"/><path d="M480 0v576"/><path opacity=".3" d="M496 0v576"/><path d="M512 0v576"/><path opacity=".3" d="M528 0v576"/><path d="M544 0v576"/><path opacity=".3" d="M560 0v576M0 16h576"/><path d="M0 32h576"/><path opacity=".3" d="M0 48h576"/><path d="M0 64h576"/><path opacity=".3" d="M0 80h576"/><path d="M0 96h576"/><path opacity=".3" d="M0 112h576"/><path d="M0 128h576"/><path opacity=".3" d="M0 144h576"/><path d="M0 160h576"/><path opacity=".3" d="M0 176h576"/><path d="M0 192h576"/><path opacity=".3" d="M0 208h576"/><path d="M0 224h576"/><path opacity=".3" d="M0 240h576"/><path d="M0 256h576"/><path opacity=".3" d="M0 272h576"/><path d="M0 288h576"/><path opacity=".3" d="M0 304h576"/><path d="M0 320h576"/><path opacity=".3" d="M0 336h576"/><path d="M0 352h576"/><path opacity=".3" d="M0 368h576"/><path d="M0 384h576"/><path opacity=".3" d="M0 400h576"/><path d="M0 416h576"/><path opacity=".3" d="M0 432h576"/><path d="M0 448h576"/><path opacity=".3" d="M0 464h576"/><path d="M0 480h576"/><path opacity=".3" d="M0 496h576"/><path d="M0 512h576"/><path opacity=".3" d="M0 528h576"/><path d="M0 544h576"/><path opacity=".3" d="M0 560h576"/></g><path d="M0 72v432h576V72H0zm506.682 36L287.964 282.942 69.318 108h437.364zM36 467.982V127.458l251.964 201.546 252.018-201.546v340.524H36z"/></symbol><symbol id="phone-call" viewBox="0 0 576 576"><title/><path d="M455.222 356.812c-11.792-12.278-26.016-18.843-41.09-18.843-14.953 0-29.298 6.443-41.577 18.722l-38.416 38.294c-3.161-1.702-6.321-3.282-9.361-4.863-4.376-2.188-8.51-4.255-12.035-6.443-35.984-22.855-68.686-52.639-100.051-91.177-15.196-19.208-25.408-35.377-32.824-51.788 9.969-9.118 19.208-18.6 28.204-27.718 3.404-3.404 6.808-6.929 10.212-10.333 25.53-25.53 25.53-58.596 0-84.126l-33.188-33.188c-3.769-3.769-7.659-7.659-11.306-11.549-7.294-7.538-14.953-15.317-22.855-22.612-11.792-11.671-25.894-17.871-40.726-17.871s-29.176 6.2-41.334 17.871l-.243.243-41.334 41.698C11.737 108.69 2.862 127.655.917 149.659c-2.918 35.498 7.538 68.565 15.561 90.204 19.694 53.125 49.114 102.361 93 155.122 53.247 63.581 117.314 113.788 190.498 149.165 27.961 13.251 65.283 28.933 106.981 31.608 2.553.122 5.227.243 7.659.243 28.082 0 51.667-10.09 70.145-30.149.121-.243.365-.365.486-.608 6.321-7.659 13.616-14.588 21.274-22.004 5.227-4.984 10.577-10.212 15.804-15.682 12.035-12.522 18.357-27.11 18.357-42.063 0-15.074-6.443-29.541-18.722-41.698l-66.741-66.984zm43.521 128.011c-.122 0-.122.121 0 0-4.741 5.106-9.604 9.726-14.831 14.831-7.902 7.538-15.925 15.44-23.463 24.314-12.278 13.129-26.745 19.329-45.71 19.329-1.824 0-3.769 0-5.592-.122-36.106-2.31-69.659-16.412-94.823-28.447-68.808-33.31-129.228-80.6-179.435-140.533-41.455-49.965-69.173-96.161-87.53-145.761-11.306-30.27-15.439-53.855-13.616-76.102 1.216-14.223 6.686-26.016 16.777-36.106l41.455-41.455c5.957-5.592 12.278-8.632 18.479-8.632 7.659 0 13.859 4.62 17.749 8.51l.364.365c7.415 6.929 14.467 14.102 21.882 21.761 3.769 3.89 7.659 7.781 11.549 11.792l33.188 33.188c12.886 12.886 12.886 24.8 0 37.686-3.526 3.526-6.929 7.051-10.455 10.455-10.212 10.455-19.937 20.18-30.514 29.663-.243.243-.486.365-.608.608-10.455 10.455-8.51 20.667-6.321 27.596l.365 1.094c8.632 20.91 20.788 40.604 39.266 64.067l.121.121c33.553 41.334 68.929 73.549 107.953 98.228 4.984 3.161 10.09 5.714 14.953 8.145 4.376 2.188 8.51 4.255 12.035 6.443.486.243.973.608 1.459.851 4.133 2.067 8.024 3.039 12.035 3.039 10.09 0 16.412-6.321 18.479-8.388l41.577-41.577c4.133-4.133 10.698-9.118 18.357-9.118 7.537 0 13.737 4.741 17.506 8.875l.243.243 66.984 66.984c12.522 12.4 12.522 25.165.122 38.051zM311.284 137.015c31.851 5.349 60.784 20.424 83.882 43.522s38.051 52.031 43.522 83.882c1.337 8.024 8.267 13.616 16.168 13.616.973 0 1.824-.122 2.796-.243 8.996-1.459 14.953-9.969 13.494-18.965-6.565-38.537-24.8-73.671-52.639-101.51s-62.972-46.074-101.51-52.639c-8.996-1.459-17.384 4.498-18.965 13.372s4.255 17.506 13.251 18.965zM575.331 254.086c-10.82-63.459-40.726-121.204-86.678-167.157S384.955 11.07 321.496.251c-8.875-1.581-17.263 4.498-18.843 13.372-1.459 8.996 4.498 17.384 13.494 18.965 56.651 9.604 108.318 36.471 149.408 77.439 41.09 41.09 67.835 92.757 77.439 149.408 1.337 8.024 8.267 13.616 16.168 13.616.973 0 1.824-.121 2.796-.243 8.875-1.337 14.953-9.847 13.372-18.722z"/></symbol><symbol id="right" viewBox="0 0 512 512"><path d="M491.318 235.318H20.682C9.26 235.318 0 244.578 0 256c0 11.423 9.26 20.682 20.682 20.682h470.636c11.423 0 20.682-9.259 20.682-20.682 0-11.422-9.259-20.682-20.682-20.682z"/><path d="M505.942 241.375L329.454 64.887c-8.077-8.076-21.172-8.076-29.249 0-8.076 8.077-8.076 21.172 0 29.249L462.069 256 300.205 417.863c-8.076 8.077-8.076 21.172 0 29.249a20.616 20.616 0 0 0 14.625 6.058 20.616 20.616 0 0 0 14.625-6.058l176.488-176.488c8.076-8.077 8.076-21.172-.001-29.249z"/></symbol><symbol id="telegram" viewBox="0 0 576 576"><title/><path d="M547.2 57.024c-7.488-6.336-19.584-6.912-40.32-.576-14.4 4.608-142.272 52.992-255.168 99.648-101.376 42.048-183.744 78.912-193.536 83.52-10.944 3.456-34.56 13.824-35.712 29.952-.576 10.368 8.064 19.584 24.768 27.072 17.856 9.216 96.768 35.712 113.472 40.896 5.76 19.584 39.744 134.208 41.472 141.12 2.304 10.368 9.216 16.128 12.672 18.432.576.576 1.728 1.728 2.88 2.304 1.728 1.152 4.032 1.728 6.912 1.728 4.032 0 8.64-1.728 12.672-4.608 21.312-17.28 58.176-55.872 68.544-66.816 45.504 35.712 95.04 75.456 99.648 80.064l.576.576c10.944 9.216 22.464 14.4 32.832 14.4 3.456 0 6.912-.576 10.368-1.728 12.096-4.032 20.736-15.552 23.616-31.104 0-.576.576-2.88 1.728-6.912 19.584-85.248 35.136-160.128 47.808-222.912 12.096-61.632 21.888-122.112 27.648-154.368 1.152-8.064 2.304-14.4 2.88-18.432 1.728-11.52 2.88-24.768-5.76-32.256zM172.8 335.808l274.752-182.016c.576-.576 1.728-1.152 2.304-1.728.576 0 .576-.576 1.152-.576s.576 0 1.152-.576c-.576.576-1.152 2.304-2.304 3.456l-69.696 65.088C331.776 263.808 268.416 321.984 226.368 360v.576l-.576.576s0 .576-.576.576c0 .576 0 .576-.576 1.152v1.152c-2.88 32.256-8.064 87.552-10.368 112.32v-.576c-2.304-6.912-34.56-116.928-41.472-139.968z"/></symbol><symbol id="vk" viewBox="0 0 576 576"><title/><path d="M307.2 460.8c19.2 0 19.2-27.667 19.2-38.4 0-19.2 19.2-38.4 38.4-38.4s52.128 32.928 76.8 57.6c19.2 19.2 19.2 19.2 38.4 19.2h57.6s38.4-1.459 38.4-38.4c0-12-13.152-32.352-57.6-76.8-38.4-38.4-58.099-18.566 0-96 35.386-47.155 61.133-89.875 56.717-102.202-4.224-11.77-102.643-30.509-114.317-12.998-38.4 57.6-45.447 71.712-57.6 96-19.2 38.4-21.101 57.6-38.4 57.6-17.453 0-19.2-37.267-19.2-57.6 0-63.475 9.197-108.365-19.2-115.2h-57.6c-30.912 0-57.6 19.2-57.6 19.2s-23.827 18.586-19.2 19.2c5.722.768 38.4-7.949 38.4 19.2v38.4s.173 76.8-19.2 76.8c-19.2 0-57.6-76.8-96-134.4-15.072-22.598-19.2-19.2-38.4-19.2-20.582 0-38.381.807-57.6.807-19.2 0-21.657 12.23-19.2 18.394 38.4 96 65.99 156.288 138.95 232.243 66.912 69.677 111.61 73.383 149.05 74.957 9.6.403 0 0 19.2 0z"/></symbol><symbol id="yt" viewBox="0 0 576 576"><title/><path d="M437.408 407.993H408.96l.133-16.526c0-7.344 6.031-13.351 13.392-13.351h1.82c7.385 0 13.433 6.007 13.433 13.351l-.328 16.526zM330.699 372.58c-7.217 0-13.121 4.856-13.121 10.789v80.369c0 5.927 5.904 10.766 13.121 10.766 7.246 0 13.156-4.839 13.156-10.766v-80.369c0-5.938-5.91-10.789-13.156-10.789zM504 327.623v152.894c0 36.674-31.801 66.683-70.675 66.683H142.681C103.795 547.2 72 517.191 72 480.517V327.623c0-36.674 31.795-66.689 70.681-66.689h290.644c38.874 0 70.675 30.016 70.675 66.689zM162.069 497.117l-.023-161.056 36.029.011v-23.863l-96.042-.144v23.461l29.981.087v161.504h30.055zm108-137.065H240.03v86.002c0 12.441.754 18.663-.046 20.857-2.442 6.67-13.421 13.755-17.701.72-.726-2.281-.087-9.159-.098-20.983l-.121-86.596h-29.872l.092 85.237c.023 13.064-.294 22.804.104 27.239.731 7.816.472 16.928 7.724 22.135 13.513 9.735 39.416-1.451 45.895-15.368l-.057 17.758 24.123.029-.006-137.031zm96.094 98.485l-.069-71.579c-.017-27.28-20.425-43.615-48.125-21.543l.121-53.216-30.009.046-.138 183.687 24.67-.357 2.247-11.44c31.53 28.921 51.351 9.101 51.304-25.598zm94.004-9.488l-22.521.115c-.011.893-.046 1.924-.057 3.047v12.574c0 6.728-5.559 12.2-12.309 12.2h-4.412c-6.762 0-12.32-5.472-12.32-12.2v-33.056h51.575v-19.411c0-14.187-.363-28.368-1.538-36.478-3.692-25.655-39.71-29.728-57.894-16.594-5.708 4.101-10.069 9.591-12.603 16.963-2.563 7.378-3.831 17.458-3.831 30.263v42.681c.017 70.951 86.199 60.923 75.911-.103zM344.638 217.337c1.55 3.767 3.957 6.82 7.223 9.124 3.225 2.27 7.35 3.41 12.292 3.41 4.331 0 8.168-1.169 11.509-3.583 3.329-2.402 6.135-5.991 8.427-10.777l-.57 11.785h33.483V84.903h-26.358v110.823c0 6.002-4.942 10.915-10.984 10.915-6.007 0-10.967-4.913-10.967-10.915V84.903h-27.51v96.042c0 12.234.224 20.391.587 24.526a41.276 41.276 0 0 0 2.869 11.865zM243.17 136.915c0-13.669 1.141-24.342 3.404-32.037 2.281-7.666 6.376-13.83 12.309-18.478 5.915-4.672 13.49-7.01 22.7-7.01 7.747 0 14.383 1.52 19.924 4.498 5.57 2.995 9.861 6.883 12.845 11.681 3.035 4.816 5.097 9.763 6.198 14.826 1.123 5.132 1.676 12.873 1.676 23.317v36.011c0 13.208-.53 22.925-1.561 29.094-1.019 6.186-3.208 11.923-6.601 17.303-3.341 5.322-7.655 9.303-12.885 11.842-5.287 2.563-11.336 3.819-18.167 3.819-7.632 0-14.06-1.054-19.36-3.255-5.317-2.189-9.424-5.489-12.35-9.872-2.955-4.389-5.034-9.735-6.29-15.967-1.262-6.226-1.861-15.593-1.861-28.074l.017-37.699zm26.225 56.564c0 8.064 6.002 14.648 13.312 14.648 7.321 0 13.294-6.584 13.294-14.648v-75.801c0-8.053-5.973-14.636-13.294-14.636-7.31 0-13.312 6.584-13.312 14.636v75.801zm-92.666 38.274h31.588l.034-109.209 37.325-93.554h-34.549l-19.843 69.488-20.126-69.679h-34.192l39.71 93.796.052 109.158z"/></symbol></svg>