<svg xmlns="http://www.w3.org/2000/svg" viewBox="0 0 480 488"><title>meeting</title><path fill="#535353" d="M446.41 168.65a56 56 0 1 0-68.86 6.28A40 40 0 0 0 360 208v56h-32v-40a56.05 56.05 0 0 0-49.36-55.57 56 56 0 1 0-77.28 0A56.05 56.05 0 0 0 152 224v40h-32v-56a40 40 0 0 0-17.54-33.07 56 56 0 1 0-68.86-6.28A40 40 0 0 0 0 208v120a40.08 40.08 0 0 0 32 39.19V488h16V368h72v112a8 8 0 0 0 8 8h48a8 8 0 0 0 8-8V352h48v120h-32v16h80v-16h-32V352h48v128a8 8 0 0 0 8 8h48a8 8 0 0 0 8-8V368h72v120h16V367.19A40.07 40.07 0 0 0 480 328V208a40 40 0 0 0-33.59-39.35zM368 128a40 40 0 1 1 40 40 40 40 0 0 1-40-40zm-168 0a40 40 0 1 1 40 40 40 40 0 0 1-40-40zm52.46 56L240 217.22 227.54 184zM168 224a40 40 0 0 1 40-40h2.46l22.06 58.81a8 8 0 0 0 15 0l22-58.81H272a40 40 0 0 1 40 40v40h-32a8 8 0 0 0-8 8v32h-64v-32a8 8 0 0 0-8-8h-32zM32 128a40 40 0 1 1 40 40 40 40 0 0 1-40-40zm136 344h-32V360a8 8 0 0 0-8-8H40a24 24 0 0 1-24-24V208a24 24 0 0 1 24-24h40a24 24 0 0 1 24 24v64a8 8 0 0 0 8 8h80v24H80v-72H64v80a8 8 0 0 0 8 8h72a24 24 0 0 1 24 24zm128.9-136H183.1a40 40 0 0 0-7.1-16h128a40 40 0 0 0-7.1 16zm167.1-8a24 24 0 0 1-24 24h-88a8 8 0 0 0-8 8v112h-32V344a24 24 0 0 1 24-24h72a8 8 0 0 0 8-8v-80h-16v72H288v-24h80a8 8 0 0 0 8-8v-64a24 24 0 0 1 24-24h40a24 24 0 0 1 24 24z"/><path fill="#535353" d="M232 264h16v16h-16zM200 0H88a8 8 0 0 0-8 8v40a8 8 0 0 0 8 8h32v16a8 8 0 0 0 12.8 6.4L162.66 56H200a8 8 0 0 0 8-8V8a8 8 0 0 0-8-8zm-8 40h-32a8 8 0 0 0-4.8 1.6L136 56v-8a8 8 0 0 0-8-8H96V16h96zm88-16h16v16h-16zm32 0h16v16h-16zm32 0h16v16h-16z"/></svg>