<svg xmlns="http://www.w3.org/2000/svg" viewBox="0 0 512 477.86"><title>mortarboard</title><path fill="#fff" d="M360.46 426.93a8.51 8.51 0 0 0-10.34 6.2l-8.53 34.13a8.53 8.53 0 0 0 6.21 10.35 8.27 8.27 0 0 0 2.07.26 8.54 8.54 0 0 0 8.27-6.46l8.53-34.13a8.54 8.54 0 0 0-6.21-10.35zM256 256a8.45 8.45 0 0 0 3.26-.65l93.87-38.84a8.54 8.54 0 0 0-6.54-15.77L256 238.23 17.07 139.36v-2.83a8.535 8.535 0 0 0-17.07 0v8.53a8.52 8.52 0 0 0 5.27 7.87l247.47 102.4a8.45 8.45 0 0 0 3.26.67zm101.51 87.42a8.52 8.52 0 0 0-11.43-3.87c-16.2 8-43.27 17.33-81.55 18.6V281.6a8.535 8.535 0 0 0-17.07 0v76.48c-106-3.38-140.15-67.57-145.07-78.25v-58a8.535 8.535 0 1 0-17.07 0v59.73a8.63 8.63 0 0 0 .61 3.17c1.49 3.7 37.8 90.69 170.06 90.69 46.23 0 78.62-11.21 97.65-20.62a8.51 8.51 0 0 0 3.87-11.38zM384 435.2a8.53 8.53 0 0 0-8.53 8.53v25.6a8.535 8.535 0 0 0 17.07 0v-25.6a8.53 8.53 0 0 0-8.54-8.53z"/><path fill="#fff" d="M503.47 128a8.53 8.53 0 0 0-8.53 8.53v2.82l-102.4 42.15v-15.43l114.19-47.26a8.53 8.53 0 0 0 0-15.77L259.26.64a8.54 8.54 0 0 0-6.52 0L5.27 103.04a8.53 8.53 0 0 0 0 15.77l247.47 102.4a8.51 8.51 0 0 0 6.52 0l89.48-37a8.53 8.53 0 1 0-6.52-15.76L256 204.1 30.85 110.93 256 17.76l225.15 93.17-98 40.54-93.84-35a20.38 20.38 0 0 0 .79-5.5c0-14.35-15-25.6-34.13-25.6s-34.13 11.25-34.13 25.6 15 25.6 34.13 25.6a41.25 41.25 0 0 0 22.08-6.08l97.38 36.36v210.18a25.6 25.6 0 1 0 17.07 0V328.6c24.5-18.49 33.28-43.12 33.66-44.21a8.63 8.63 0 0 0 .47-2.79v-59.74a8.535 8.535 0 1 0-17.07 0v58.15a87.29 87.29 0 0 1-17.07 25.78V199.93l114.18-47a8.53 8.53 0 0 0 5.28-7.89v-8.51a8.53 8.53 0 0 0-8.48-8.53zM256 119.46c-10.42 0-17.07-5.05-17.07-8.53s6.65-8.53 17.07-8.53 17.07 5.05 17.07 8.53-6.65 8.53-17.07 8.53zM384 409.6a8.53 8.53 0 1 1 8.53-8.53 8.54 8.54 0 0 1-8.53 8.53zm33.88 23.52a8.531 8.531 0 0 0-16.55 4.15l8.53 34.13a8.54 8.54 0 0 0 8.27 6.46 8.28 8.28 0 0 0 2.07-.26 8.53 8.53 0 0 0 6.21-10.35z"/></svg>