<svg version="1" xmlns="http://www.w3.org/2000/svg" width="933.333" height="933.333" viewBox="0 0 700.000000 700.000000"><path d="M.4.9C.2 1.1 0 67.4 0 148.2V295l165.7-.2 165.6-.3V149c-.1-80-.2-146.2-.2-147C331 .7 312 .5 165.9.5 75.1.5.6.7.4.9zm368.5.1c-.3 1.6-.4 143.8-.1 145.1.3 1.4 7.4 1.6 73.6 1.6h73.3l-.1-73.6-.1-73.5h-73.3C402 .5 369 .7 368.9 1zm183.8 71.8c0 39.4.1 72.4.2 73.3.1 1.4 7 1.6 73.1 1.6 40.2 0 73-.2 73-.5C699 146.5 553.7 1 553 1c-.3 0-.4 32.3-.3 71.8zm-183 110.4c-.8.5-1.1 74.1-1.1 258.7l-.1 258.1H700V182.5H535.4c-90.5 0-165.1.3-165.7.7zM1 331.8c-.7.3-1 62.6-1 184.3V700h165.5c91 0 165.5-.3 165.6-.8 0-.4.1-83 .2-183.6.2-140.1-.1-183-1-183.3-1.3-.5-327.8-1-329.3-.5z"/></svg>