<?xml version="1.0" standalone="no"?>
<!DOCTYPE svg PUBLIC "-//W3C//DTD SVG 20010904//EN"
 "http://www.w3.org/TR/2001/REC-SVG-20010904/DTD/svg10.dtd">
<svg version="1.0" xmlns="http://www.w3.org/2000/svg"
 width="700.000000pt" height="700.000000pt" viewBox="0 0 700.000000 700.000000"
 preserveAspectRatio="xMidYMid meet">
<metadata>
Created by potrace 1.11, written by Peter Selinger 2001-2013
</metadata>
<g transform="translate(0.000000,700.000000) scale(0.100000,-0.100000)"
fill="#000000" stroke="none">
<path d="M4 6991 c-2 -2 -4 -665 -4 -1473 l0 -1468 1657 2 1656 3 0 1455 c-1
800 -2 1462 -2 1470 -1 13 -191 15 -1652 15 -908 0 -1653 -2 -1655 -4z"/>
<path d="M3689 6990 c-3 -16 -4 -1438 -1 -1451 3 -14 74 -16 736 -16 l733 0
-1 736 -1 735 -733 0 c-402 1 -732 -1 -733 -4z"/>
<path d="M5527 6272 c0 -394 1 -724 2 -733 1 -14 70 -16 731 -16 402 0 730 2
730 5 0 7 -1453 1462 -1460 1462 -3 0 -4 -323 -3 -718z"/>
<path d="M3697 5168 c-8 -5 -11 -741 -11 -2587 l-1 -2581 1658 0 1657 0 0
2588 0 2587 -1646 0 c-905 0 -1651 -3 -1657 -7z"/>
<path d="M10 3682 c-7 -3 -10 -626 -10 -1843 l0 -1839 1655 0 c910 0 1655 3
1656 8 0 4 1 830 2 1836 2 1401 -1 1830 -10 1833 -13 5 -3278 10 -3293 5z"/>
</g>
</svg>
