<svg version="1" xmlns="http://www.w3.org/2000/svg" width="1536" height="1536" viewBox="0 0 1152.000000 1152.000000"><path d="M156 147.6c0 .6-1.7 1-4 .9l-4-.1.2 180 .3 180.1 201.5.1c110.8 0 202-.3 202.5-.7.7-.5 1-61.3 1-180.1V148.5h-30c-18.8 0-30.3-.4-30.7-1-.5-.7-.8-.7-.8 0 0 .6-5.8 1-15.5 1s-15.5-.4-15.5-1c0-.7-.3-.6-.8 0-.9 1.4-30.4 1.3-31.4 0-.5-.7-.8-.7-.8 0 0 .6-5.8 1-15.5 1s-15.5-.4-15.5-1c0-.7-.3-.7-.8 0-.4.6-9.5 1-23.7 1s-23.3-.4-23.7-1c-.5-.7-.8-.7-.8 0s-16.5 1-47.5 1-47.5-.3-47.5-1-.3-.7-.8 0c-.4.6-17.5 1-47.7 1-30.2 0-47.3-.4-47.7-1-.5-.6-.8-.6-.8.1zM599.4 148.5c-.2.5-.3 41.3-.2 90.5l.3 89.5H779v-181h-89.6c-58.9 0-89.8.3-90 1zM824.2 167.9c0 11.3-.1 21-.2 21.6-.1.5-.1 1.4 0 2 .1.5.2 31.6.3 69v68h89.3c49.2 0 89.4-.3 89.4-.7 0-.7-23.4-24.3-137.5-138.9l-41.3-41.5v20.5zM599 687.9v316.8h405V371H599v316.9zM148 779.1v225.6h202.4c148.3 0 202.6-.3 202.9-1.1.2-.6.3-102.1.3-225.6l-.1-224.5H148v225.6z"/></svg>